<svg width="24" height="24" viewBox="0 0 24 24" fill="none" xmlns="http://www.w3.org/2000/svg">
<path d="M3 6.524C3 6.129 3.327 5.81 3.73 5.81H8.518C8.524 4.968 8.616 3.815 9.45 3.017C10.137 2.36177 11.0506 1.99738 12 2C12.9494 1.99738 13.863 2.36177 14.55 3.017C15.384 3.815 15.476 4.968 15.482 5.81H20.27C20.673 5.81 21 6.13 21 6.524C20.9992 6.61889 20.9797 6.71269 20.9425 6.80001C20.9054 6.88733 20.8513 6.96644 20.7835 7.03279C20.7156 7.09915 20.6353 7.15144 20.5472 7.18665C20.4591 7.22187 20.3649 7.23932 20.27 7.238H3.73C3.63511 7.23932 3.5409 7.22187 3.45278 7.18665C3.36466 7.15144 3.28437 7.09915 3.21653 7.03279C3.14869 6.96644 3.09463 6.88733 3.05747 6.80001C3.02031 6.71269 3.00078 6.61889 3 6.524Z" fill="black"/>
<path fill-rule="evenodd" clip-rule="evenodd" d="M11.596 22H12.404C15.187 22 16.578 22 17.484 21.114C18.388 20.228 18.48 18.774 18.665 15.868L18.932 11.681C19.032 10.104 19.082 9.315 18.629 8.815C18.175 8.315 17.409 8.315 15.876 8.315H8.124C6.591 8.315 5.824 8.315 5.371 8.815C4.918 9.315 4.967 10.104 5.068 11.681L5.335 15.869C5.52 18.775 5.612 20.229 6.517 21.114C7.422 22 8.813 22 11.596 22ZM10.246 12.189C10.206 11.755 9.838 11.439 9.426 11.482C9.013 11.525 8.713 11.912 8.754 12.346L9.254 17.609C9.294 18.043 9.662 18.359 10.074 18.316C10.487 18.272 10.787 17.886 10.746 17.452L10.246 12.189ZM14.575 11.482C14.987 11.525 15.288 11.912 15.246 12.346L14.746 17.609C14.706 18.043 14.337 18.359 13.926 18.316C13.513 18.272 13.213 17.886 13.254 17.452L13.754 12.188C13.794 11.755 14.163 11.438 14.574 11.481" fill="black"/>
</svg>
