<svg width="24" height="24" viewBox="0 0 24 24" fill="none" xmlns="http://www.w3.org/2000/svg">
<path d="M22 11C21.99 7.886 21.892 6.235 20.828 5.172C19.657 4 17.771 4 14 4H10C6.229 4 4.343 4 3.172 5.172C2.001 6.344 2 8.229 2 12C2 15.771 2 17.657 3.172 18.828C4.344 19.999 6.229 20 10 20H11.5" stroke="black" stroke-width="1.5" stroke-linecap="round"/>
<path d="M15.5 14V20M15.5 20L17.5 18M15.5 20L13.5 18M20 20V14M20 14L22 16M20 14L18 16" stroke="black" stroke-width="1.5" stroke-linecap="round" stroke-linejoin="round"/>
<path d="M10 16H6M2 10H22" stroke="black" stroke-width="1.5" stroke-linecap="round"/>
</svg>
