<svg width="24" height="24" viewBox="0 0 24 24" fill="none" xmlns="http://www.w3.org/2000/svg">
<path d="M10 4H14C17.771 4 19.657 4 20.828 5.172C21.672 6.015 21.908 7.229 21.974 9.25H2.026C2.092 7.229 2.328 6.015 3.172 5.172C4.343 4 6.229 4 10 4Z" fill="black"/>
<path fill-rule="evenodd" clip-rule="evenodd" d="M22 12.818L21.591 12.409C21.3821 12.2001 21.134 12.0343 20.861 11.9213C20.5881 11.8082 20.2955 11.75 20 11.75C19.7045 11.75 19.4119 11.8082 19.139 11.9213C18.866 12.0343 18.6179 12.2001 18.409 12.409L17.608 13.21C17.4225 12.7167 17.0699 12.3042 16.6115 12.0442C16.1531 11.7842 15.618 11.6933 15.0995 11.7873C14.581 11.8813 14.1118 12.1542 13.7739 12.5586C13.4359 12.9629 13.2505 13.473 13.25 14V15.764C12.8289 15.8111 12.4297 15.9761 12.0983 16.24C11.7669 16.504 11.5167 16.8562 11.3766 17.256C11.2365 17.6559 11.2122 18.0871 11.3063 18.5002C11.4005 18.9133 11.6094 19.2914 11.909 19.591L12.318 20H10C6.229 20 4.343 20 3.172 18.828C2.001 17.656 2 15.771 2 12C2 11.5587 2.00067 11.142 2.002 10.75H21.998C21.9993 11.142 22 11.5587 22 12V12.818ZM6 15.25C5.80109 15.25 5.61032 15.329 5.46967 15.4697C5.32902 15.6103 5.25 15.8011 5.25 16C5.25 16.1989 5.32902 16.3897 5.46967 16.5303C5.61032 16.671 5.80109 16.75 6 16.75H10C10.1989 16.75 10.3897 16.671 10.5303 16.5303C10.671 16.3897 10.75 16.1989 10.75 16C10.75 15.8011 10.671 15.6103 10.5303 15.4697C10.3897 15.329 10.1989 15.25 10 15.25H6Z" fill="black"/>
<path fill-rule="evenodd" clip-rule="evenodd" d="M15.5 13.25C15.6989 13.25 15.8897 13.329 16.0303 13.4697C16.171 13.6103 16.25 13.8011 16.25 14V18.19L16.97 17.47C17.0387 17.3963 17.1215 17.3372 17.2135 17.2962C17.3055 17.2552 17.4048 17.2332 17.5055 17.2314C17.6062 17.2296 17.7062 17.2482 17.7996 17.2859C17.893 17.3236 17.9778 17.3797 18.049 17.451C18.1203 17.5222 18.1764 17.607 18.2141 17.7004C18.2518 17.7938 18.2704 17.8938 18.2686 17.9945C18.2668 18.0952 18.2448 18.1945 18.2038 18.2865C18.1628 18.3785 18.1037 18.4613 18.03 18.53L16.03 20.53C15.8894 20.6705 15.6988 20.7493 15.5 20.7493C15.3012 20.7493 15.1106 20.6705 14.97 20.53L12.97 18.53C12.8963 18.4613 12.8372 18.3785 12.7962 18.2865C12.7552 18.1945 12.7332 18.0952 12.7314 17.9945C12.7296 17.8938 12.7482 17.7938 12.7859 17.7004C12.8236 17.607 12.8797 17.5222 12.951 17.451C13.0222 17.3797 13.107 17.3236 13.2004 17.2859C13.2938 17.2482 13.3938 17.2296 13.4945 17.2314C13.5952 17.2332 13.6945 17.2552 13.7865 17.2962C13.8785 17.3372 13.9613 17.3963 14.03 17.47L14.75 18.19V14C14.75 13.8011 14.829 13.6103 14.9697 13.4697C15.1103 13.329 15.3011 13.25 15.5 13.25ZM19.47 13.47C19.6106 13.3295 19.8012 13.2507 20 13.2507C20.1988 13.2507 20.3894 13.3295 20.53 13.47L22.53 15.47C22.6037 15.5387 22.6628 15.6215 22.7038 15.7135C22.7448 15.8055 22.7668 15.9048 22.7686 16.0055C22.7704 16.1062 22.7518 16.2062 22.7141 16.2996C22.6764 16.393 22.6203 16.4778 22.549 16.549C22.4778 16.6203 22.393 16.6764 22.2996 16.7141C22.2062 16.7518 22.1062 16.7704 22.0055 16.7686C21.9048 16.7668 21.8055 16.7448 21.7135 16.7038C21.6215 16.6628 21.5387 16.6037 21.47 16.53L20.75 15.81V20C20.75 20.1989 20.671 20.3897 20.5303 20.5303C20.3897 20.671 20.1989 20.75 20 20.75C19.8011 20.75 19.6103 20.671 19.4697 20.5303C19.329 20.3897 19.25 20.1989 19.25 20V15.81L18.53 16.53C18.4613 16.6037 18.3785 16.6628 18.2865 16.7038C18.1945 16.7448 18.0952 16.7668 17.9945 16.7686C17.8938 16.7704 17.7938 16.7518 17.7004 16.7141C17.607 16.6764 17.5222 16.6203 17.451 16.549C17.3797 16.4778 17.3236 16.393 17.2859 16.2996C17.2482 16.2062 17.2296 16.1062 17.2314 16.0055C17.2332 15.9048 17.2552 15.8055 17.2962 15.7135C17.3372 15.6215 17.3963 15.5387 17.47 15.47L19.47 13.47Z" fill="black"/>
</svg>
