<svg width="24" height="24" viewBox="0 0 24 24" fill="none" xmlns="http://www.w3.org/2000/svg">
<path d="M2 16.9C2 15.59 2 14.936 2.295 14.455C2.45987 14.186 2.68602 13.9599 2.955 13.795C3.435 13.5 4.091 13.5 5.4 13.5H6.5C8.386 13.5 9.328 13.5 9.914 14.086C10.5 14.672 10.5 15.614 10.5 17.5V18.6C10.5 19.91 10.5 20.564 10.205 21.045C10.0401 21.314 9.81398 21.5401 9.545 21.705C9.065 22 8.409 22 7.1 22C5.136 22 4.154 22 3.433 21.558C3.02954 21.3107 2.6903 20.9715 2.443 20.568C2 19.845 2 18.864 2 16.9ZM13.5 5.4C13.5 4.09 13.5 3.436 13.795 2.955C13.9599 2.68602 14.186 2.45987 14.455 2.295C14.935 2 15.591 2 16.9 2C18.864 2 19.846 2 20.568 2.442C20.9715 2.6893 21.3107 3.02854 21.558 3.432C22 4.155 22 5.137 22 7.1C22 8.41 22 9.064 21.705 9.545C21.5401 9.81398 21.314 10.0401 21.045 10.205C20.565 10.5 19.909 10.5 18.6 10.5H17.5C15.614 10.5 14.672 10.5 14.086 9.914C13.5 9.328 13.5 8.386 13.5 6.5V5.4Z" stroke="black" stroke-width="1.5"/>
<path d="M16.5 6.25C16.5 5.735 16.5 5.477 16.63 5.295C16.6753 5.2308 16.7311 5.17468 16.795 5.129C16.977 5 17.235 5 17.75 5C18.265 5 18.523 5 18.705 5.13C18.7692 5.17529 18.8253 5.23107 18.871 5.295C19 5.477 19 5.735 19 6.25C19 6.765 19 7.023 18.87 7.205C18.8247 7.2692 18.7689 7.32532 18.705 7.371C18.523 7.5 18.265 7.5 17.75 7.5C17.235 7.5 16.977 7.5 16.795 7.37C16.7308 7.32471 16.6747 7.26893 16.629 7.205C16.5 7.023 16.5 6.765 16.5 6.25ZM12.75 22C12.75 22.1989 12.829 22.3897 12.9697 22.5303C13.1103 22.671 13.3011 22.75 13.5 22.75C13.6989 22.75 13.8897 22.671 14.0303 22.5303C14.171 22.3897 14.25 22.1989 14.25 22H12.75ZM19 12.75H17V14.25H19V12.75ZM12.75 19V22H14.25V19H12.75ZM17 12.75C16.313 12.75 15.742 12.75 15.281 12.796C14.807 12.844 14.368 12.949 13.972 13.214L14.806 14.461C14.914 14.388 15.078 14.324 15.433 14.288C15.8 14.251 16.283 14.25 17 14.25V12.75ZM14.25 17C14.25 16.282 14.25 15.8 14.288 15.433C14.324 15.078 14.388 14.914 14.461 14.806L13.214 13.972C12.95 14.368 12.844 14.807 12.796 15.281C12.749 15.742 12.75 16.313 12.75 17H14.25ZM13.972 13.214C13.672 13.414 13.414 13.672 13.214 13.972L14.461 14.806C14.5532 14.6703 14.6703 14.5532 14.806 14.461L13.972 13.214ZM22.75 13.5C22.75 13.3011 22.671 13.1103 22.5303 12.9697C22.3897 12.829 22.1989 12.75 22 12.75C21.8011 12.75 21.6103 12.829 21.4697 12.9697C21.329 13.1103 21.25 13.3011 21.25 13.5H22.75ZM17 22.75H19V21.25H17V22.75ZM22.75 17V13.5H21.25V17H22.75ZM19 22.75C19.456 22.75 19.835 22.75 20.145 22.73C20.462 22.708 20.762 22.662 21.052 22.541L20.478 21.155C20.401 21.187 20.284 21.216 20.043 21.233C19.796 21.25 19.476 21.25 19 21.25V22.75ZM21.25 19C21.25 19.476 21.25 19.796 21.233 20.043C21.216 20.284 21.187 20.401 21.155 20.478L22.541 21.052C22.661 20.762 22.708 20.462 22.729 20.145C22.75 19.835 22.75 19.455 22.75 19H21.25ZM21.052 22.541C21.3858 22.4029 21.689 22.1994 21.9445 21.9441C22.2 21.6888 22.4027 21.3857 22.541 21.052L21.155 20.478C21.0922 20.6298 21.0001 20.7677 20.8839 20.8839C20.7677 21.0001 20.6298 21.0922 20.478 21.155L21.052 22.541Z" fill="black"/>
<path d="M2 7.1C2 5.136 2 4.154 2.442 3.433C2.6893 3.02954 3.02854 2.6903 3.432 2.443C4.155 2 5.137 2 7.1 2C8.41 2 9.064 2 9.545 2.295C9.81398 2.45987 10.0401 2.68602 10.205 2.955C10.5 3.435 10.5 4.091 10.5 5.4V6.5C10.5 8.386 10.5 9.328 9.914 9.914C9.328 10.5 8.386 10.5 6.5 10.5H5.4C4.09 10.5 3.436 10.5 2.955 10.205C2.68602 10.0401 2.45987 9.81398 2.295 9.545C2 9.065 2 8.409 2 7.1Z" stroke="black" stroke-width="1.5"/>
<path d="M5 6.25C5 5.735 5 5.477 5.13 5.295C5.17529 5.2308 5.23107 5.17468 5.295 5.129C5.477 5 5.735 5 6.25 5C6.765 5 7.023 5 7.205 5.13C7.2692 5.17529 7.32532 5.23107 7.371 5.295C7.5 5.477 7.5 5.735 7.5 6.25C7.5 6.765 7.5 7.023 7.37 7.205C7.32471 7.2692 7.26893 7.32532 7.205 7.371C7.023 7.5 6.765 7.5 6.25 7.5C5.735 7.5 5.477 7.5 5.295 7.37C5.2308 7.32471 5.17468 7.26893 5.129 7.205C5 7.023 5 6.765 5 6.25ZM5 17.75C5 17.235 5 16.977 5.13 16.795C5.17529 16.7308 5.23107 16.6747 5.295 16.629C5.477 16.5 5.735 16.5 6.25 16.5C6.765 16.5 7.023 16.5 7.205 16.63C7.2692 16.6753 7.32532 16.7311 7.371 16.795C7.5 16.977 7.5 17.235 7.5 17.75C7.5 18.265 7.5 18.523 7.37 18.705C7.32471 18.7692 7.26893 18.8253 7.205 18.871C7.023 19 6.765 19 6.25 19C5.735 19 5.477 19 5.295 18.87C5.2308 18.8247 5.17468 18.7689 5.129 18.705C5 18.523 5 18.265 5 17.75ZM16 17.75C16 17.048 16 16.697 16.169 16.444C16.2418 16.3352 16.3352 16.2418 16.444 16.169C16.697 16 17.048 16 17.75 16C18.452 16 18.803 16 19.056 16.169C19.1648 16.2418 19.2582 16.3352 19.331 16.444C19.5 16.697 19.5 17.048 19.5 17.75C19.5 18.452 19.5 18.803 19.331 19.056C19.2582 19.1648 19.1648 19.2582 19.056 19.331C18.803 19.5 18.452 19.5 17.75 19.5C17.048 19.5 16.697 19.5 16.444 19.331C16.3352 19.2582 16.2418 19.1648 16.169 19.056C16 18.803 16 18.452 16 17.75Z" fill="black"/>
</svg>
