<svg width="24" height="24" viewBox="0 0 24 24" fill="none" xmlns="http://www.w3.org/2000/svg">
<path fill-rule="evenodd" clip-rule="evenodd" d="M3.464 3.464C2 4.93 2 7.286 2 12C2 16.714 2 19.071 3.464 20.535C4.93 22 7.286 22 12 22C16.714 22 19.071 22 20.535 20.535C22 19.072 22 16.714 22 12C22 7.286 22 4.929 20.535 3.464C19.072 2 16.714 2 12 2C7.286 2 4.929 2 3.464 3.464ZM13.75 10C13.75 10.414 14.086 10.75 14.5 10.75H15.19L13.177 12.763C13.1538 12.7863 13.1262 12.8048 13.0958 12.8174C13.0654 12.83 13.0329 12.8364 13 12.8364C12.9671 12.8364 12.9346 12.83 12.9042 12.8174C12.8738 12.8048 12.8462 12.7863 12.823 12.763L11.237 11.177C10.9088 10.8491 10.4639 10.6649 10 10.6649C9.53609 10.6649 9.09115 10.8491 8.763 11.177L6.47 13.47C6.39631 13.5387 6.33721 13.6215 6.29622 13.7135C6.25523 13.8055 6.23319 13.9048 6.23141 14.0055C6.22963 14.1062 6.24816 14.2062 6.28588 14.2996C6.3236 14.393 6.37974 14.4778 6.45096 14.549C6.52218 14.6203 6.60701 14.6764 6.7004 14.7141C6.79379 14.7518 6.89382 14.7704 6.99452 14.7686C7.09523 14.7668 7.19454 14.7448 7.28654 14.7038C7.37854 14.6628 7.46134 14.6037 7.53 14.53L9.823 12.237C9.84622 12.2137 9.87381 12.1952 9.90418 12.1826C9.93456 12.17 9.96712 12.1636 10 12.1636C10.0329 12.1636 10.0654 12.17 10.0958 12.1826C10.1262 12.1952 10.1538 12.2137 10.177 12.237L11.763 13.823C12.0912 14.1509 12.5361 14.3351 13 14.3351C13.4639 14.3351 13.9088 14.1509 14.237 13.823L16.25 11.811V12.5C16.25 12.6989 16.329 12.8897 16.4697 13.0303C16.6103 13.171 16.8011 13.25 17 13.25C17.1989 13.25 17.3897 13.171 17.5303 13.0303C17.671 12.8897 17.75 12.6989 17.75 12.5V10C17.75 9.80109 17.671 9.61032 17.5303 9.46967C17.3897 9.32902 17.1989 9.25 17 9.25H14.5C14.3011 9.25 14.1103 9.32902 13.9697 9.46967C13.829 9.61032 13.75 9.80109 13.75 10Z" fill="black"/>
</svg>
