<svg width="24" height="24" viewBox="0 0 24 24" fill="none" xmlns="http://www.w3.org/2000/svg">
<path d="M20.7503 5.75H8M20.7503 17.75H8M20.7503 11.75H8" stroke="black" stroke-width="1.5" stroke-linecap="round"/>
<path d="M4.50033 17.75C4.50033 18.1642 4.16455 18.5 3.75033 18.5C3.33612 18.5 3.00033 18.1642 3.00033 17.75C3.00033 17.3358 3.33612 17 3.75033 17C4.16455 17 4.50033 17.3358 4.50033 17.75Z" fill="black"/>
<path d="M4.50009 11.7519C4.50009 12.1661 4.1643 12.5019 3.75009 12.5019C3.33587 12.5019 3.00009 12.1661 3.00009 11.7519C3.00009 11.3377 3.33587 11.0019 3.75009 11.0019C4.1643 11.0019 4.50009 11.3377 4.50009 11.7519Z" fill="black"/>
<path d="M4.49997 5.75C4.49997 6.16421 4.16418 6.5 3.74997 6.5C3.33576 6.5 2.99997 6.16421 2.99997 5.75C2.99997 5.33579 3.33576 5 3.74997 5C4.16418 5 4.49997 5.33579 4.49997 5.75Z" fill="black"/>
</svg>
