<svg width="24" height="24" viewBox="0 0 24 24" fill="none" xmlns="http://www.w3.org/2000/svg">
<path fill-rule="evenodd" clip-rule="evenodd" d="M10 2.25C9.66869 2.24984 9.34414 2.34373 9.06409 2.52075C8.78404 2.69777 8.55999 2.95066 8.418 3.25C7.734 3.256 7.202 3.287 6.726 3.473C6.15777 3.69527 5.66359 4.07301 5.3 4.563C4.933 5.056 4.76 5.69 4.524 6.561L4.477 6.731L3.964 9.695C3.77934 9.82233 3.61734 9.97533 3.478 10.154C2.577 11.307 3.006 13.024 3.864 16.455C4.409 18.638 4.682 19.729 5.496 20.365C6.31 21 7.435 21 9.685 21H14.315C16.565 21 17.69 21 18.504 20.365C19.318 19.729 19.59 18.638 20.136 16.455C20.994 13.023 21.423 11.308 20.522 10.154C20.3841 9.97671 20.2199 9.82157 20.035 9.694L19.522 6.732L19.476 6.562C19.239 5.69 19.066 5.056 18.7 4.562C18.3363 4.07238 17.8421 3.695 17.274 3.473C16.798 3.287 16.265 3.256 15.582 3.251C15.4402 2.95147 15.2162 2.69838 14.9361 2.52117C14.656 2.34396 14.3314 2.24993 14 2.25H10ZM18.418 9.146L18.056 7.058C17.773 6.018 17.67 5.691 17.496 5.457C17.3002 5.19311 17.034 4.98968 16.728 4.87C16.508 4.784 16.242 4.759 15.58 4.752C15.4379 5.05066 15.214 5.30293 14.9344 5.47956C14.6547 5.6562 14.3308 5.74996 14 5.75H10C9.66925 5.74996 9.34527 5.6562 9.06563 5.47956C8.78599 5.30293 8.56213 5.05066 8.42 4.752C7.757 4.759 7.492 4.784 7.272 4.87C6.96597 4.98968 6.69981 5.19311 6.504 5.457C6.33 5.691 6.227 6.017 5.944 7.057L5.582 9.146C6.58 9 7.91 9 9.685 9H14.315C16.09 9 17.42 9 18.418 9.146ZM8 12.25C8.19891 12.25 8.38968 12.329 8.53033 12.4697C8.67098 12.6103 8.75 12.8011 8.75 13V17C8.75 17.1989 8.67098 17.3897 8.53033 17.5303C8.38968 17.671 8.19891 17.75 8 17.75C7.80109 17.75 7.61032 17.671 7.46967 17.5303C7.32902 17.3897 7.25 17.1989 7.25 17V13C7.25 12.8011 7.32902 12.6103 7.46967 12.4697C7.61032 12.329 7.80109 12.25 8 12.25ZM16.75 13C16.75 12.8011 16.671 12.6103 16.5303 12.4697C16.3897 12.329 16.1989 12.25 16 12.25C15.8011 12.25 15.6103 12.329 15.4697 12.4697C15.329 12.6103 15.25 12.8011 15.25 13V17C15.25 17.1989 15.329 17.3897 15.4697 17.5303C15.6103 17.671 15.8011 17.75 16 17.75C16.1989 17.75 16.3897 17.671 16.5303 17.5303C16.671 17.3897 16.75 17.1989 16.75 17V13ZM12 12.25C12.1989 12.25 12.3897 12.329 12.5303 12.4697C12.671 12.6103 12.75 12.8011 12.75 13V17C12.75 17.1989 12.671 17.3897 12.5303 17.5303C12.3897 17.671 12.1989 17.75 12 17.75C11.8011 17.75 11.6103 17.671 11.4697 17.5303C11.329 17.3897 11.25 17.1989 11.25 17V13C11.25 12.8011 11.329 12.6103 11.4697 12.4697C11.6103 12.329 11.8011 12.25 12 12.25Z" fill="black"/>
</svg>
