<svg width="24" height="24" viewBox="0 0 24 24" fill="none" xmlns="http://www.w3.org/2000/svg">
<path fill-rule="evenodd" clip-rule="evenodd" d="M12 22C17.523 22 22 17.523 22 12C22 6.477 17.523 2 12 2C6.477 2 2 6.477 2 12C2 17.523 6.477 22 12 22ZM12.75 6C12.75 5.80109 12.671 5.61032 12.5303 5.46967C12.3897 5.32902 12.1989 5.25 12 5.25C11.8011 5.25 11.6103 5.32902 11.4697 5.46967C11.329 5.61032 11.25 5.80109 11.25 6V6.317C9.62 6.609 8.25 7.834 8.25 9.5C8.25 11.417 10.063 12.75 12 12.75C13.377 12.75 14.25 13.656 14.25 14.5C14.25 15.344 13.377 16.25 12 16.25C10.624 16.25 9.75 15.344 9.75 14.5C9.75 14.3011 9.67098 14.1103 9.53033 13.9697C9.38968 13.829 9.19891 13.75 9 13.75C8.80109 13.75 8.61032 13.829 8.46967 13.9697C8.32902 14.1103 8.25 14.3011 8.25 14.5C8.25 16.166 9.62 17.391 11.25 17.683V18C11.25 18.1989 11.329 18.3897 11.4697 18.5303C11.6103 18.671 11.8011 18.75 12 18.75C12.1989 18.75 12.3897 18.671 12.5303 18.5303C12.671 18.3897 12.75 18.1989 12.75 18V17.683C14.38 17.391 15.75 16.166 15.75 14.5C15.75 12.583 13.937 11.25 12 11.25C10.624 11.25 9.75 10.344 9.75 9.5C9.75 8.656 10.624 7.75 12 7.75C13.377 7.75 14.25 8.656 14.25 9.5C14.25 9.69891 14.329 9.88968 14.4697 10.0303C14.6103 10.171 14.8011 10.25 15 10.25C15.1989 10.25 15.3897 10.171 15.5303 10.0303C15.671 9.88968 15.75 9.69891 15.75 9.5C15.75 7.834 14.38 6.609 12.75 6.317V6Z" fill="black"/>
</svg>
