<svg width="24" height="24" viewBox="0 0 24 24" fill="none" xmlns="http://www.w3.org/2000/svg">
<path d="M3.68 13L3.152 13.532C3.29246 13.6712 3.48222 13.7493 3.68 13.7493C3.87777 13.7493 4.06754 13.6712 4.208 13.532L3.68 13ZM5.888 11.866C6.02936 11.7257 6.10919 11.535 6.10994 11.3358C6.11069 11.1367 6.0323 10.9454 5.892 10.804C5.82253 10.734 5.73995 10.6784 5.64899 10.6403C5.55802 10.6022 5.46044 10.5824 5.36183 10.5821C5.16266 10.5813 4.97136 10.6597 4.83 10.8L5.888 11.866ZM2.528 10.8C2.38599 10.6639 2.19618 10.589 1.99947 10.5915C1.80276 10.594 1.61491 10.6736 1.4764 10.8133C1.33788 10.953 1.2598 11.1415 1.25898 11.3383C1.25816 11.535 1.33466 11.7242 1.472 11.865L2.528 10.8ZM18.616 7.392C18.6663 7.47857 18.7334 7.5542 18.8133 7.61443C18.8933 7.67465 18.9845 7.71827 19.0816 7.74269C19.1787 7.76711 19.2797 7.77185 19.3786 7.75663C19.4775 7.74141 19.5724 7.70654 19.6577 7.65406C19.7429 7.60159 19.8168 7.53258 19.875 7.4511C19.9332 7.36962 19.9744 7.27733 19.9963 7.17965C20.0183 7.08197 20.0204 6.9809 20.0027 6.88237C19.9849 6.78385 19.9476 6.68988 19.893 6.606L18.616 7.392ZM12.079 2.25C7.032 2.25 2.929 6.311 2.929 11.333H4.429C4.429 7.151 7.849 3.75 12.079 3.75V2.25ZM2.929 11.333V13H4.429V11.333H2.929ZM4.209 13.533L5.888 11.866L4.83 10.8L3.15 12.467L4.209 13.533ZM4.209 12.468L2.528 10.8L1.471 11.865L3.151 13.531L4.209 12.468ZM19.893 6.608C19.0719 5.27423 17.9226 4.17327 16.5547 3.41031C15.1869 2.64734 13.6452 2.24785 12.079 2.25V3.75C13.3892 3.74747 14.6792 4.08106 15.8237 4.71887C16.9681 5.35668 17.9299 6.2774 18.617 7.393L19.893 6.608ZM20.314 11L20.841 10.467C20.7006 10.3284 20.5113 10.2506 20.314 10.2506C20.1167 10.2506 19.9274 10.3284 19.787 10.467L20.314 11ZM18.1 12.133C18.0299 12.2023 17.9742 12.2847 17.936 12.3755C17.8978 12.4663 17.8778 12.5637 17.8773 12.6623C17.8761 12.8612 17.9541 13.0525 18.094 13.194C18.2339 13.3355 18.4243 13.4156 18.6233 13.4167C18.8222 13.4179 19.0135 13.3399 19.155 13.2L18.1 12.133ZM21.473 13.2C21.5426 13.2711 21.6258 13.3276 21.7175 13.3662C21.8092 13.4049 21.9077 13.4249 22.0072 13.4251C22.1067 13.4253 22.2053 13.4057 22.2971 13.3674C22.389 13.3291 22.4723 13.2729 22.5422 13.2021C22.6122 13.1313 22.6673 13.0473 22.7045 12.955C22.7416 12.8627 22.76 12.7639 22.7586 12.6644C22.7572 12.5649 22.736 12.4666 22.6962 12.3754C22.6564 12.2842 22.5989 12.2018 22.527 12.133L21.473 13.2ZM5.318 16.606C5.2135 16.4367 5.04602 16.3158 4.85238 16.2699C4.65875 16.2241 4.45484 16.257 4.2855 16.3615C4.11616 16.466 3.99526 16.6335 3.94941 16.8271C3.90356 17.0207 3.9365 17.2247 4.041 17.394L5.318 16.606ZM11.883 21.75C16.945 21.75 21.063 17.692 21.063 12.667H19.563C19.563 16.847 16.133 20.25 11.883 20.25V21.75ZM21.063 12.667V11H19.563V12.667H21.063ZM19.787 10.467L18.1 12.133L19.155 13.2L20.841 11.533L19.787 10.467ZM19.787 11.533L21.473 13.2L22.527 12.133L20.841 10.467L19.787 11.533ZM4.04 17.393C4.86663 18.7281 6.02126 19.8295 7.39394 20.5921C8.76663 21.3548 10.3117 21.7534 11.882 21.75V20.25C10.5677 20.2534 9.27439 19.9203 8.12523 19.2824C6.97607 18.6446 6.01031 17.7232 5.318 16.606L4.04 17.393Z" fill="black"/>
</svg>
