<svg width="24" height="24" viewBox="0 0 24 24" fill="none" xmlns="http://www.w3.org/2000/svg">
<path d="M3 10.417C3 7.219 3 5.62 3.378 5.082C3.755 4.545 5.258 4.03 8.265 3.001L8.838 2.805C10.405 2.268 11.188 2 12 2C12.812 2 13.595 2.268 15.162 2.805L15.735 3.001C18.742 4.03 20.245 4.545 20.622 5.082C21 5.62 21 7.22 21 10.417V11.991C21 17.629 16.761 20.366 14.101 21.527C13.38 21.842 13.02 22 12 22C10.98 22 10.62 21.842 9.899 21.527C7.239 20.365 3 17.63 3 11.991V10.417Z" stroke="black" stroke-width="1.5"/>
<path d="M12 13.5V16.5M13.5 13.098C13.1585 13.3036 12.7795 13.4391 12.3851 13.4965C11.9907 13.554 11.5888 13.5323 11.2029 13.4327C10.817 13.3331 10.4548 13.1576 10.1374 12.9164C9.82009 12.6752 9.55399 12.3733 9.35467 12.0281C9.15536 11.683 9.02681 11.3015 8.97655 10.9062C8.92629 10.5108 8.95533 10.1093 9.06195 9.72529C9.16858 9.34125 9.35067 8.9823 9.59757 8.66942C9.84448 8.35654 10.1513 8.09599 10.5 7.903C11.1879 7.52233 11.9977 7.42689 12.7552 7.63721C13.5127 7.84753 14.1574 8.3468 14.5505 9.02761C14.9437 9.70842 15.0539 10.5164 14.8574 11.2776C14.6609 12.0388 14.1735 12.6925 13.5 13.098Z" stroke="black" stroke-width="1.5" stroke-linecap="round"/>
</svg>
