<svg width="24" height="24" viewBox="0 0 24 24" fill="none" xmlns="http://www.w3.org/2000/svg">
<path d="M6.444 3.685C6.9685 3.33458 7.52498 3.03458 8.106 2.789C9.509 2.196 10.21 1.899 11.106 2.493C12 3.086 12 4.057 12 6V8C12 9.886 12 10.828 12.586 11.414C13.172 12 14.114 12 16 12H18C19.942 12 20.914 12 21.507 12.895C22.1 13.79 21.804 14.491 21.211 15.895C20.3148 18.0144 18.7151 19.7598 16.6818 20.837C14.6484 21.9141 12.3058 22.2571 10.049 21.808C8.10906 21.4223 6.32708 20.4699 4.92842 19.0713C3.52977 17.6728 2.57727 15.8909 2.19139 13.951C1.8055 12.0111 2.00356 10.0003 2.76053 8.17294C3.51749 6.3456 4.79935 4.78378 6.444 3.685Z" stroke="black" stroke-width="1.5"/>
<path d="M14.5 2.315C16.2294 2.76332 17.8075 3.66588 19.0708 4.92918C20.3341 6.19249 21.2367 7.77058 21.685 9.5" stroke="black" stroke-width="1.5" stroke-linecap="round"/>
</svg>
