<svg width="24" height="24" viewBox="0 0 24 24" fill="none" xmlns="http://www.w3.org/2000/svg">
<path d="M6.444 3.685C6.9685 3.33458 7.52498 3.03458 8.106 2.789C9.509 2.196 10.21 1.899 11.106 2.493C12 3.086 12 4.057 12 6V8C12 9.886 12 10.828 12.586 11.414C13.172 12 14.114 12 16 12H18C19.942 12 20.914 12 21.507 12.895C22.1 13.79 21.804 14.491 21.211 15.895C20.3148 18.0144 18.7151 19.7598 16.6818 20.837C14.6484 21.9141 12.3058 22.2571 10.049 21.808C8.10906 21.4223 6.32708 20.4699 4.92842 19.0713C3.52977 17.6728 2.57727 15.8909 2.19139 13.951C1.8055 12.0111 2.00356 10.0003 2.76053 8.17294C3.51749 6.3456 4.79935 4.78378 6.444 3.685Z" fill="black"/>
<path fill-rule="evenodd" clip-rule="evenodd" d="M13.774 2.128C13.7985 2.03259 13.8415 1.94294 13.9007 1.86416C13.9598 1.78539 14.0339 1.71903 14.1187 1.66889C14.2034 1.61875 14.2973 1.58579 14.3948 1.57191C14.4923 1.55803 14.5916 1.5635 14.687 1.588C16.5465 2.06972 18.2434 3.04001 19.6017 4.39831C20.96 5.7566 21.9303 7.45346 22.412 9.313C22.4366 9.4084 22.4421 9.50771 22.4283 9.60525C22.4144 9.70279 22.3815 9.79666 22.3314 9.88148C22.2813 9.96631 22.215 10.0404 22.1363 10.0996C22.0575 10.1588 21.9679 10.2019 21.8725 10.2265C21.7771 10.2511 21.6778 10.2566 21.5803 10.2428C21.4827 10.2289 21.3888 10.196 21.304 10.1459C21.2192 10.0958 21.1451 10.0295 21.0859 9.95078C21.0267 9.87204 20.9836 9.7824 20.959 9.687C20.5442 8.0874 19.7092 6.62777 18.5407 5.45926C17.3722 4.29075 15.9126 3.45585 14.313 3.041C14.2176 3.01651 14.1279 2.97347 14.0492 2.91434C13.9704 2.8552 13.904 2.78113 13.8539 2.69635C13.8038 2.61157 13.7708 2.51774 13.7569 2.42022C13.743 2.3227 13.7485 2.2234 13.773 2.128" fill="black"/>
</svg>
