<svg width="24" height="24" viewBox="0 0 24 24" fill="none" xmlns="http://www.w3.org/2000/svg">
<path d="M10.186 2.139C10.3557 2.2427 10.4773 2.40958 10.524 2.60293C10.5707 2.79628 10.5387 3.00026 10.435 3.17C10.3586 3.29461 10.3264 3.44134 10.3436 3.58649C10.3609 3.73165 10.4265 3.86676 10.53 3.97L10.628 4.067C11.216 4.656 11.433 5.521 11.193 6.317C11.1335 6.50496 11.0024 6.66195 10.8281 6.75399C10.6538 6.84604 10.4502 6.86573 10.2614 6.80881C10.0727 6.7519 9.91392 6.62295 9.81951 6.44987C9.72511 6.2768 9.70266 6.07351 9.757 5.884C9.79655 5.75257 9.79976 5.61289 9.76631 5.47979C9.73286 5.34668 9.66398 5.22511 9.567 5.128L9.47 5.03C9.12874 4.68876 8.91221 4.24263 8.85525 3.7634C8.79829 3.28418 8.90423 2.79972 9.156 2.388C9.20727 2.30387 9.27461 2.23067 9.35417 2.17257C9.43374 2.11448 9.52397 2.07263 9.61971 2.04941C9.71545 2.0262 9.81483 2.02207 9.91217 2.03727C10.0095 2.05247 10.1029 2.0867 10.187 2.138M17.69 4.721C17.8849 4.76031 18.0562 4.87541 18.1663 5.04099C18.2764 5.20656 18.3162 5.40907 18.277 5.604L18.133 6.324C17.935 7.314 17.221 8.124 16.263 8.443C15.815 8.593 15.481 8.97 15.389 9.433L15.245 10.153C15.2257 10.2496 15.1876 10.3414 15.1328 10.4233C15.078 10.5051 15.0076 10.5754 14.9256 10.63C14.8437 10.6847 14.7518 10.7226 14.6552 10.7418C14.5585 10.7609 14.4591 10.7608 14.3625 10.7415C14.2659 10.7222 14.1741 10.6841 14.0922 10.6293C14.0104 10.5745 13.9401 10.5041 13.8855 10.4221C13.8308 10.3402 13.7929 10.2483 13.7737 10.1517C13.7546 10.055 13.7547 9.95559 13.774 9.859L13.918 9.139C14.116 8.148 14.83 7.339 15.788 7.019C16.236 6.871 16.57 6.493 16.663 6.029L16.806 5.309C16.8254 5.2124 16.8635 5.12057 16.9184 5.03873C16.9733 4.9569 17.0437 4.88668 17.1257 4.83208C17.2077 4.77747 17.2996 4.73956 17.3963 4.7205C17.493 4.70144 17.5924 4.70161 17.689 4.721M21.409 13.56C21.2319 13.4821 21.0362 13.4567 20.8451 13.4869C20.654 13.517 20.4755 13.6014 20.331 13.73C19.9365 14.0802 19.4416 14.2972 18.9167 14.3502C18.3918 14.4031 17.8636 14.2894 17.407 14.025L17.194 13.903C17.1086 13.8538 17.0338 13.7882 16.9738 13.71C16.9138 13.6319 16.8698 13.5426 16.8442 13.4475C16.8187 13.3523 16.8121 13.253 16.825 13.1553C16.8378 13.0576 16.8698 12.9634 16.919 12.878C16.9682 12.7926 17.0338 12.7178 17.112 12.6578C17.1901 12.5978 17.2794 12.5538 17.3745 12.5282C17.4697 12.5027 17.569 12.4961 17.6667 12.509C17.7644 12.5218 17.8586 12.5538 17.944 12.603L18.157 12.726C18.535 12.944 19.009 12.896 19.336 12.607C19.6947 12.2886 20.137 12.0797 20.6108 12.0049C21.0845 11.9301 21.5697 11.9926 22.009 12.185L22.301 12.312C22.4833 12.3917 22.6265 12.5406 22.6991 12.7259C22.7717 12.9111 22.7677 13.1177 22.688 13.3C22.6083 13.4823 22.4594 13.6255 22.2742 13.6981C22.0889 13.7707 21.8823 13.7667 21.7 13.687L21.409 13.56ZM6.928 3.94C6.97791 3.89023 7.03712 3.85077 7.10227 3.82389C7.16742 3.797 7.23723 3.78321 7.30771 3.78331C7.37819 3.7834 7.44796 3.79737 7.51304 3.82443C7.57812 3.85149 7.63723 3.8911 7.687 3.941C7.73677 3.9909 7.77623 4.05012 7.80311 4.11527C7.83 4.18042 7.84379 4.25023 7.8437 4.32071C7.8436 4.39119 7.82963 4.46096 7.80257 4.52604C7.77552 4.59112 7.73591 4.65023 7.686 4.7C7.58522 4.80052 7.44864 4.85688 7.3063 4.85669C7.16396 4.85651 7.02752 4.79978 6.927 4.699C6.82649 4.59822 6.77012 4.46163 6.77031 4.31929C6.7705 4.17695 6.82722 4.04052 6.928 3.94ZM12.916 7.157C12.8662 7.10716 12.807 7.06763 12.7419 7.04066C12.6768 7.01369 12.607 6.99981 12.5365 6.99981C12.466 6.99981 12.3962 7.01369 12.3311 7.04066C12.266 7.06763 12.2068 7.10716 12.157 7.157C12.1072 7.20684 12.0676 7.266 12.0407 7.33112C12.0137 7.39623 11.9998 7.46602 11.9998 7.5365C11.9998 7.60698 12.0137 7.67677 12.0407 7.74188C12.0676 7.807 12.1072 7.86616 12.157 7.916C12.2069 7.96584 12.2661 8.00536 12.3313 8.0323C12.3965 8.05925 12.4663 8.07309 12.5369 8.07305C12.6074 8.073 12.6772 8.05906 12.7423 8.03203C12.8075 8.005 12.8667 7.9654 12.9165 7.9155C12.9663 7.8656 13.0059 7.80637 13.0328 7.74119C13.0598 7.67602 13.0736 7.60617 13.0736 7.53565C13.0735 7.46512 13.0596 7.39529 13.0325 7.33015C13.0055 7.26501 12.9659 7.20684 12.916 7.157ZM17.157 10.157C17.2068 10.1072 17.2659 10.0676 17.3309 10.0406C17.396 10.0136 17.4657 9.99971 17.5361 9.99966C17.6066 9.99961 17.6763 10.0134 17.7414 10.0404C17.8065 10.0673 17.8657 10.1067 17.9155 10.1565C17.9653 10.2063 18.0049 10.2654 18.0319 10.3304C18.0589 10.3955 18.0728 10.4652 18.0728 10.5356C18.0729 10.6061 18.0591 10.6758 18.0322 10.7409C18.0052 10.806 17.9658 10.8652 17.916 10.915C17.8155 11.0156 17.6791 11.0722 17.5369 11.0723C17.3946 11.0724 17.2582 11.016 17.1575 10.9155C17.0569 10.815 17.0003 10.6786 17.0002 10.5364C17.0001 10.3941 17.0565 10.2576 17.157 10.157ZM19.817 15.313C19.7164 15.2124 19.5798 15.1558 19.4375 15.1558C19.2952 15.1558 19.1587 15.2124 19.058 15.313C18.9574 15.4136 18.9008 15.5502 18.9008 15.6925C18.9008 15.8348 18.9574 15.9714 19.058 16.072C19.1078 16.1218 19.167 16.1614 19.2321 16.1883C19.2972 16.2153 19.367 16.2292 19.4375 16.2292C19.508 16.2292 19.5778 16.2153 19.6429 16.1883C19.708 16.1614 19.7672 16.1218 19.817 16.072C19.8668 16.0222 19.9064 15.963 19.9333 15.8979C19.9603 15.8328 19.9742 15.763 19.9742 15.6925C19.9742 15.622 19.9603 15.5522 19.9333 15.4871C19.9064 15.422 19.8668 15.3628 19.817 15.313ZM7.472 20.241C5.21 20.987 4.018 21.299 3.359 20.64C2.629 19.91 3.09 18.527 4.012 15.762L5.702 10.693C6.334 8.797 6.705 7.683 7.324 7.231L7.319 7.257C7.26953 7.49966 7.22352 7.74302 7.181 7.987C7.06524 8.63128 6.96188 9.27774 6.871 9.926C6.655 11.459 6.456 13.418 6.559 14.983C6.621 15.93 6.818 17.105 6.994 18.023C7.09046 18.5255 7.19447 19.0266 7.306 19.526L7.326 19.619L7.472 20.241ZM13.039 18.386L13.306 18.297C15.604 17.531 16.753 17.148 16.966 16.242C17.181 15.336 16.324 14.479 14.611 12.766L12.922 11.077L12.917 11.092L12.835 11.359C12.767 11.589 12.675 11.909 12.584 12.275C12.397 13.024 12.227 13.897 12.227 14.555C12.227 15.213 12.397 16.086 12.584 16.835C12.6897 17.2562 12.8084 17.6741 12.94 18.088L12.945 18.105L12.947 18.109L13.039 18.386ZM8.8 7.504L8.85 7.259C9.463 7.619 10.189 8.344 11.232 9.388L11.735 9.89L11.523 10.53L11.513 10.558L11.488 10.638L11.398 10.929C11.325 11.175 11.227 11.519 11.128 11.912C10.936 12.681 10.727 13.703 10.727 14.555C10.727 15.407 10.937 16.429 11.128 17.198C11.2419 17.6533 11.3703 18.1049 11.513 18.552L11.616 18.861L8.901 19.766L8.794 19.306L8.789 19.284L8.769 19.197L8.696 18.867C8.636 18.585 8.553 18.191 8.466 17.741C8.293 16.834 8.111 15.735 8.056 14.885C7.963 13.481 8.143 11.649 8.356 10.135C8.47811 9.27069 8.62282 8.40973 8.79 7.553L8.797 7.516L8.799 7.506L8.8 7.504ZM14.954 2.21C15.105 2.19 15.382 2.18 15.601 2.4C15.82 2.62 15.811 2.896 15.791 3.048C15.7629 3.20986 15.7248 3.36983 15.677 3.527L15.641 3.653L15.706 3.755C15.793 3.894 15.887 4.043 15.945 4.175C16.01 4.325 16.084 4.577 15.945 4.841C15.808 5.101 15.563 5.187 15.408 5.222C15.266 5.254 15.089 5.268 14.921 5.282L14.794 5.292H14.783L14.691 5.404C14.581 5.537 14.468 5.675 14.361 5.774C14.247 5.877 14.033 6.037 13.736 5.997C13.429 5.955 13.269 5.732 13.192 5.593C13.1188 5.44899 13.056 5.29994 13.004 5.147L12.964 5.037L12.854 4.997C12.7014 4.94529 12.5527 4.8828 12.409 4.81C12.269 4.732 12.047 4.573 12.005 4.266C11.965 3.968 12.125 3.755 12.228 3.641C12.326 3.534 12.465 3.421 12.598 3.311L12.71 3.219V3.209L12.72 3.081C12.733 2.912 12.747 2.735 12.78 2.594C12.815 2.438 12.9 2.194 13.16 2.057C13.425 1.917 13.677 1.992 13.826 2.057C13.959 2.114 14.108 2.208 14.246 2.296L14.349 2.36L14.475 2.325C14.639 2.278 14.81 2.229 14.954 2.21ZM22.14 10.492C22.607 10.025 22.78 9.396 22.524 8.842C22.329 8.422 21.937 8.149 21.454 8.046C21.352 7.563 21.078 7.171 20.658 6.976C20.104 6.721 19.475 6.893 19.008 7.361C18.738 7.631 18.615 7.994 18.558 8.318C18.498 8.648 18.498 8.998 18.517 9.304C18.5413 9.67944 18.5958 10.0523 18.68 10.419C18.725 10.599 18.872 10.769 19.052 10.813H19.054L19.081 10.82C19.1859 10.8451 19.2917 10.8668 19.398 10.885C19.603 10.921 19.887 10.964 20.196 10.983C20.502 11.003 20.852 11.002 21.182 10.943C21.506 10.886 21.869 10.763 22.14 10.493" fill="black"/>
</svg>
