<svg width="24" height="24" viewBox="0 0 24 24" fill="none" xmlns="http://www.w3.org/2000/svg">
<path d="M10.875 8.552C11.1307 8.40366 11.4131 8.30727 11.7061 8.26836C11.9991 8.22945 12.2969 8.24878 12.5824 8.32525C12.868 8.40171 13.1356 8.53381 13.3699 8.71395C13.6042 8.89409 13.8007 9.11874 13.948 9.375C14.0963 9.63066 14.1927 9.9131 14.2316 10.2061C14.2706 10.4991 14.2512 10.7969 14.1748 11.0824C14.0983 11.3679 13.9662 11.6356 13.786 11.8699C13.6059 12.1042 13.3813 12.3007 13.125 12.448C12.6092 12.7318 12.0028 12.8021 11.4358 12.644C10.8688 12.4858 10.3863 12.1117 10.0919 11.6019C9.79754 11.0922 9.71464 10.4873 9.86103 9.91716C10.0074 9.34698 10.3714 8.85689 10.875 8.552Z" fill="black"/>
<path fill-rule="evenodd" clip-rule="evenodd" d="M3.378 5.082C3 5.62 3 7.22 3 10.417V11.991C3 17.629 7.239 20.366 9.899 21.527C10.62 21.842 10.981 22 12 22C13.02 22 13.38 21.842 14.101 21.527C16.761 20.365 21 17.63 21 11.991V10.417C21 7.219 21 5.62 20.622 5.082C20.245 4.545 18.742 4.03 15.735 3.001L15.162 2.805C13.595 2.268 12.812 2 12 2C11.188 2 10.405 2.268 8.838 2.805L8.265 3C5.258 4.03 3.755 4.545 3.378 5.082ZM12.448 6.778C11.4889 6.66608 10.5235 6.92847 9.75301 7.51052C8.9825 8.09258 8.46622 8.94943 8.31169 9.90263C8.15717 10.8558 8.3763 11.8319 8.92346 12.6276C9.47062 13.4232 10.3036 13.9772 11.249 14.174V16.5C11.249 16.699 11.3281 16.8899 11.4688 17.0307C11.6096 17.1714 11.8005 17.2505 11.9995 17.2505C12.1985 17.2505 12.3894 17.1714 12.5302 17.0307C12.6709 16.8899 12.75 16.699 12.75 16.5V14.175C13.136 14.096 13.515 13.955 13.875 13.747C14.3018 13.5012 14.676 13.1736 14.9761 12.783C15.2761 12.3924 15.4962 11.9464 15.6236 11.4706C15.751 10.9949 15.7834 10.4986 15.7188 10.0103C15.6541 9.522 15.4938 9.05125 15.247 8.625C14.9559 8.12116 14.5515 7.69197 14.0659 7.3714C13.5803 7.05083 13.0267 6.84767 12.449 6.778" fill="black"/>
</svg>
