<svg width="24" height="24" viewBox="0 0 24 24" fill="none" xmlns="http://www.w3.org/2000/svg">
<path d="M4.012 15.762L5.702 10.693C6.468 8.395 6.851 7.246 7.757 7.033C8.663 6.818 9.52 7.675 11.232 9.388L14.612 12.767C16.324 14.48 17.181 15.336 16.967 16.242C16.753 17.148 15.604 17.532 13.306 18.297L8.237 19.987C5.472 20.909 4.089 21.37 3.359 20.64C2.629 19.91 3.09 18.527 4.012 15.762Z" stroke="black" stroke-width="1.5" stroke-linecap="round"/>
<path d="M12.235 18.346C12.235 18.346 11.477 16.065 11.477 14.556C11.477 13.046 12.235 10.764 12.235 10.764M8.06501 19.484C8.06501 19.484 7.42501 16.731 7.30701 14.934C7.11201 11.965 8.06501 7.353 8.06501 7.353M14.51 10.006L14.653 9.286C14.799 8.559 15.323 7.966 16.026 7.732C16.3713 7.61636 16.6799 7.41171 16.9208 7.1387C17.1617 6.86568 17.3263 6.53396 17.398 6.177L17.542 5.457M17.569 12.253L17.782 12.376C18.1021 12.5613 18.4725 12.641 18.8405 12.6038C19.2085 12.5667 19.5554 12.4145 19.832 12.169C20.0836 11.9451 20.3943 11.798 20.727 11.7454C21.0597 11.6928 21.4005 11.7367 21.709 11.872L22 12M10.535 3C10.371 3.26822 10.302 3.58384 10.3392 3.89604C10.3764 4.20823 10.5176 4.49882 10.74 4.721L10.838 4.819C11.231 5.212 11.376 5.789 11.215 6.322" stroke="black" stroke-width="1.5" stroke-linecap="round"/>
<path d="M13.561 4.396C13.762 4.196 13.863 4.095 13.979 4.058C14.0773 4.02687 14.1827 4.02687 14.281 4.058C14.397 4.095 14.498 4.195 14.699 4.396C14.899 4.598 15 4.698 15.037 4.814C15.0681 4.91226 15.0681 5.01774 15.037 5.116C15 5.233 14.9 5.333 14.699 5.534C14.498 5.735 14.397 5.836 14.281 5.873C14.1827 5.90413 14.0773 5.90413 13.979 5.873C13.863 5.836 13.762 5.735 13.561 5.534C13.36 5.334 13.259 5.233 13.223 5.116C13.1919 5.01774 13.1919 4.91226 13.223 4.814C13.259 4.698 13.36 4.598 13.561 4.396ZM19.468 7.468C19.714 7.223 19.836 7.1 19.975 7.047C20.1369 6.98468 20.3161 6.98468 20.478 7.047C20.616 7.1 20.739 7.223 20.985 7.468C21.23 7.714 21.353 7.836 21.406 7.975C21.4683 8.13688 21.4683 8.31612 21.406 8.478C21.353 8.616 21.23 8.739 20.985 8.985C20.739 9.23 20.616 9.353 20.478 9.406C20.3161 9.46832 20.1369 9.46832 19.975 9.406C19.836 9.353 19.714 9.23 19.468 8.985C19.223 8.739 19.1 8.616 19.047 8.478C18.9847 8.31612 18.9847 8.13688 19.047 7.975C19.1 7.836 19.223 7.714 19.468 7.468ZM6.927 3.94C6.9769 3.89016 7.03613 3.85064 7.10131 3.8237C7.16649 3.79675 7.23633 3.78291 7.30686 3.78295C7.37738 3.783 7.44721 3.79694 7.51235 3.82397C7.57749 3.851 7.63667 3.8906 7.6865 3.9405C7.73634 3.9904 7.77586 4.04963 7.80281 4.11481C7.82975 4.17998 7.8436 4.24983 7.84355 4.32035C7.8435 4.39088 7.82957 4.46071 7.80253 4.52585C7.7755 4.59099 7.7359 4.65016 7.686 4.7C7.58522 4.80065 7.44858 4.85714 7.30615 4.85705C7.16372 4.85695 7.02715 4.80028 6.9265 4.6995C6.82585 4.59872 6.76936 4.46208 6.76946 4.31965C6.76955 4.17721 6.82622 4.04065 6.927 3.94ZM19.058 15.313C19.1078 15.2632 19.167 15.2236 19.2321 15.1967C19.2972 15.1697 19.367 15.1558 19.4375 15.1558C19.508 15.1558 19.5778 15.1697 19.6429 15.1967C19.708 15.2236 19.7672 15.2632 19.817 15.313C19.8668 15.3628 19.9064 15.422 19.9333 15.4871C19.9603 15.5522 19.9742 15.622 19.9742 15.6925C19.9742 15.763 19.9603 15.8328 19.9333 15.8979C19.9064 15.963 19.8668 16.0222 19.817 16.072C19.7164 16.1727 19.5798 16.2292 19.4375 16.2292C19.2952 16.2292 19.1587 16.1727 19.058 16.072C18.9574 15.9714 18.9008 15.8348 18.9008 15.6925C18.9008 15.5502 18.9574 15.4136 19.058 15.313ZM17.5 9.741C17.5499 9.69116 17.6091 9.65164 17.6743 9.6247C17.7395 9.59775 17.8093 9.58391 17.8799 9.58395C17.9504 9.584 18.0202 9.59794 18.0853 9.62497C18.1505 9.652 18.2097 9.6916 18.2595 9.7415C18.3093 9.7914 18.3489 9.85063 18.3758 9.91581C18.4028 9.98098 18.4166 10.0508 18.4166 10.1214C18.4165 10.1919 18.4026 10.2617 18.3755 10.3268C18.3485 10.392 18.3089 10.4512 18.259 10.501C18.1582 10.6017 18.0216 10.6581 17.8791 10.658C17.7367 10.658 17.6002 10.6013 17.4995 10.5005C17.3989 10.3997 17.3424 10.2631 17.3425 10.1206C17.3425 9.97821 17.3992 9.84165 17.5 9.741Z" fill="black"/>
</svg>
