<svg width="24" height="24" viewBox="0 0 24 24" fill="none" xmlns="http://www.w3.org/2000/svg">
<path fill-rule="evenodd" clip-rule="evenodd" d="M3.464 3.464C2 4.93 2 7.286 2 12C2 16.714 2 19.071 3.464 20.535C4.93 22 7.286 22 12 22C16.714 22 19.071 22 20.535 20.535C22 19.072 22 16.714 22 12C22 7.286 22 4.929 20.535 3.464C19.072 2 16.714 2 12 2C7.286 2 4.929 2 3.464 3.464ZM17 12.25C17.1989 12.25 17.3897 12.329 17.5303 12.4697C17.671 12.6103 17.75 12.8011 17.75 13V18C17.75 18.1989 17.671 18.3897 17.5303 18.5303C17.3897 18.671 17.1989 18.75 17 18.75C16.8011 18.75 16.6103 18.671 16.4697 18.5303C16.329 18.3897 16.25 18.1989 16.25 18V13C16.25 12.8011 16.329 12.6103 16.4697 12.4697C16.6103 12.329 16.8011 12.25 17 12.25ZM12.75 6C12.75 5.80109 12.671 5.61032 12.5303 5.46967C12.3897 5.32902 12.1989 5.25 12 5.25C11.8011 5.25 11.6103 5.32902 11.4697 5.46967C11.329 5.61032 11.25 5.80109 11.25 6V18C11.25 18.1989 11.329 18.3897 11.4697 18.5303C11.6103 18.671 11.8011 18.75 12 18.75C12.1989 18.75 12.3897 18.671 12.5303 18.5303C12.671 18.3897 12.75 18.1989 12.75 18V6ZM7 8.25C7.19891 8.25 7.38968 8.32902 7.53033 8.46967C7.67098 8.61032 7.75 8.80109 7.75 9V18C7.75 18.1989 7.67098 18.3897 7.53033 18.5303C7.38968 18.671 7.19891 18.75 7 18.75C6.80109 18.75 6.61032 18.671 6.46967 18.5303C6.32902 18.3897 6.25 18.1989 6.25 18V9C6.25 8.80109 6.32902 8.61032 6.46967 8.46967C6.61032 8.32902 6.80109 8.25 7 8.25Z" fill="black"/>
</svg>
