<svg width="24" height="24" viewBox="0 0 24 24" fill="none" xmlns="http://www.w3.org/2000/svg">
<path d="M9.17 4C9.3766 3.41447 9.75974 2.90743 10.2666 2.54879C10.7735 2.19015 11.3791 1.99755 12 1.99755C12.6209 1.99755 13.2265 2.19015 13.7334 2.54879C14.2403 2.90743 14.6234 3.41447 14.83 4M20.5 6H3.5M18.833 8.5L18.373 15.4C18.196 18.054 18.108 19.381 17.243 20.19C16.378 20.999 15.047 21 12.387 21H11.613C8.953 21 7.622 21 6.757 20.19C5.892 19.381 5.803 18.054 5.627 15.4L5.167 8.5M9.5 11L10 16M14.5 11L14 16" stroke="black" stroke-width="1.5" stroke-linecap="round"/>
</svg>
